<?xml version="1.0" encoding="UTF-8"?><svg id="uuid-0c773d5d-e15b-480b-a4da-a3965e254fed" xmlns="http://www.w3.org/2000/svg" width="57.7812mm" height="22.222mm" viewBox="0 0 163.7892 62.9915"><defs><style>.uuid-f90207e5-e323-40a9-8a89-f72c7c24004a{fill:#fff;}.uuid-2ff2227e-1c68-4fee-8d9e-f9dfd28fc67c{fill:#e9535c;}</style></defs><g id="uuid-0132b5b8-1aa6-4dbc-8098-1eca83c8dff6"><rect class="uuid-2ff2227e-1c68-4fee-8d9e-f9dfd28fc67c" y="0" width="50.024" height="48.9795" rx="4.5818" ry="4.5818"/><path class="uuid-f90207e5-e323-40a9-8a89-f72c7c24004a" d="M137.0328,2.2885c.1621,0,.3652-.0152.6082-.0447.2434-.0304.5037-.0705.781-.1215.2773-.0518.5398-.1107.7877-.1795.3242-.1027.5653-.209.7234-.3197.1576-.1116.2367-.2518.2367-.4233,0-.1277-.0384-.2688-.1152-.4224s-.1813-.2858-.3135-.3965c-.1326-.1107-.2884-.1661-.4675-.1661-.2134,0-.4501.0697-.7104.2108-.2608.1411-.5358.301-.8261.4804-.3072.2134-.559.4054-.7551.576-.1965.1706-.2947.3286-.2947.4733,0,.0857.0321.1625.096.2304.0643.0688.1473.1027.2496.1027Z"/><path class="uuid-f90207e5-e323-40a9-8a89-f72c7c24004a" d="M62.4854,11.525c.6733.3635,1.519.5447,2.5344.5447.9904,0,1.7352-.1536,2.2344-.4608s.7484-.7126.7484-1.2163c0-.367-.1063-.6421-.3197-.8261-.2134-.1831-.4947-.2751-.8448-.2751-.1625,0-.3652.0188-.6082.0572-.2438.0384-.4974.0768-.7618.1152-.2652.0384-.5126.058-.743.058-.5885,0-1.06-.1554-1.4146-.4671s-.5314-.843-.5314-1.5941c0-.5126.0902-.918.2688-1.2163.1795-.2992.4179-.5099.7171-.6341.2992-.1232.6278-.1857.9859-.1857.3072,0,.576.0411.8064.1223.2304.0804.4528.1643.6662.2492.2125.0857.4474.1277.7037.1277.4099,0,.7251-.1081.9475-.326.2215-.2179.3331-.5099.3331-.877,0-.5635-.267-1.0181-.8002-1.3637-.534-.3456-1.2654-.5188-2.196-.5188-.9984,0-1.8495.2009-2.5541.6019-.7037.4019-1.244.9671-1.6191,1.6968-.376.7296-.5635,1.5807-.5635,2.5541,0,.8787.1661,1.6467.4992,2.304s.8359,1.1672,1.511,1.5298Z"/><path class="uuid-f90207e5-e323-40a9-8a89-f72c7c24004a" d="M70.8451,11.3402c.6394.3322,1.3869.4992,2.2397.4992.9225,0,1.7227-.1732,2.4005-.5188.6787-.3456,1.2056-.8368,1.5816-1.4726.3751-.6349.5635-1.3931.5635-2.2719,0-.9136-.1857-1.7137-.5572-2.4005s-.8939-1.2226-1.5682-1.6066-1.4681-.5769-2.3817-.5769c-.8618,0-1.6146.1991-2.2594.5956-.6448.3974-1.144.9493-1.4976,1.6584-.3545.7082-.5314,1.5315-.5314,2.4701,0,.8457.175,1.5771.5251,2.196.3492.6189.8448,1.0949,1.4851,1.428ZM71.5104,6.0329c.1706-.3197.4072-.5715.7109-.7555.3027-.1831.6501-.2751,1.0431-.2751.401,0,.7528.092,1.0565.2751.3027.184.5376.4358.7037.7555.167.3206.25.6939.25,1.1208s-.0831.8019-.25,1.1261c-.1661.3251-.401.576-.7037.7555-.3036.1795-.6555.2688-1.0565.2688-.3929,0-.7403-.0893-1.0431-.2688-.3036-.1795-.5403-.4304-.7109-.7555-.1706-.3242-.2563-.6992-.2563-1.1261s.0857-.8002.2563-1.1208Z"/><path class="uuid-f90207e5-e323-40a9-8a89-f72c7c24004a" d="M79.9602,11.6858c.3072,0,.551-.0839.7296-.25.1795-.1661.3027-.392.3715-.6787.0679-.2858.1027-.6037.1027-.9538,0-.3331-.0107-.7082-.0321-1.1261-.0214-.4188-.0518-.8627-.0902-1.3315-.0384-.4697-.0768-.935-.1152-1.3958s-.0786-.8957-.1215-1.3056h.0518c.2215.9386.4287,1.6682.6207,2.1888s.392.8859.6019,1.0949c.209.209.4367.3135.685.3135.401,0,.7653-.2858,1.094-.8573s.6385-1.4512.9287-2.6371h.0509c-.0688.5974-.1366,1.2181-.2045,1.862-.0688.6448-.1241,1.2788-.167,1.9013-.0429.6233-.0634,1.2083-.0634,1.7539,0,.4608.0464.8198.1402,1.0761.0938.2554.2304.4349.4099.5376.1795.1018.384.1536.6144.1536.4269,0,.768-.1625,1.0243-.4867s.384-.8832.384-1.6771c0-.6064-.0188-1.261-.0572-1.9656-.0384-.7037-.0964-1.3904-.1732-2.0611-.0768-.6698-.1795-1.2565-.3072-1.7602-.1197-.5117-.2876-.9064-.5055-1.1842s-.5233-.4162-.9154-.4162c-.2483,0-.4956.1134-.743.3394s-.4885.6037-.7234,1.1333c-.2349.5287-.4626,1.2458-.685,2.1504h-.0509c-.2304-.8787-.4697-1.5637-.7171-2.0549-.2474-.4903-.501-.8341-.7618-1.0306-.2599-.1965-.5269-.2947-.8002-.2947-.367,0-.6653.1348-.8957.4036s-.3974.7189-.4992,1.3503c-.0598.3501-.1152.7582-.167,1.2234-.0509.4653-.0938.9448-.1277,1.4396-.0339.4956-.0625.9734-.0831,1.4342-.0214.4608-.0321.8662-.0321,1.2163,0,.6742.1,1.1583.301,1.453.2.2947.5099.442.9279.442Z"/><path class="uuid-f90207e5-e323-40a9-8a89-f72c7c24004a" d="M92.635,11.525c.6733.3635,1.519.5447,2.5344.5447.9904,0,1.7352-.1536,2.2344-.4608s.7484-.7126.7484-1.2163c0-.367-.1063-.6421-.3197-.8261-.2134-.1831-.4947-.2751-.8448-.2751-.1625,0-.3652.0188-.6082.0572-.2438.0384-.4974.0768-.7618.1152-.2652.0384-.5126.058-.743.058-.5885,0-1.06-.1554-1.4146-.4671s-.5314-.843-.5314-1.5941c0-.5126.0902-.918.2688-1.2163.1795-.2992.4179-.5099.7171-.6341.2992-.1232.6278-.1857.9859-.1857.3072,0,.576.0411.8064.1223.2304.0804.4528.1643.6662.2492.2125.0857.4474.1277.7037.1277.4099,0,.7251-.1081.9475-.326.2215-.2179.3331-.5099.3331-.877,0-.5635-.267-1.0181-.8002-1.3637-.534-.3456-1.2654-.5188-2.196-.5188-.9984,0-1.8495.2009-2.5541.6019-.7037.4019-1.244.9671-1.6191,1.6968-.376.7296-.5635,1.5807-.5635,2.5541,0,.8787.1661,1.6467.4992,2.304s.8359,1.1672,1.511,1.5298Z"/><path class="uuid-f90207e5-e323-40a9-8a89-f72c7c24004a" d="M99.6943,11.7304c.192.192.4635.2876.8135.2876.4349,0,.7421-.1384.9216-.4162.1795-.2768.2688-.676.2688-1.1967,0-.2384-.0107-.4947-.0321-.768s-.0464-.5376-.0768-.7939c-.0295-.2563-.0661-.4733-.1089-.6528h.0518c.5197.9305.9984,1.6619,1.4338,2.196.4349.5331.8466.9127,1.2351,1.1386.3885.2268.7702.3394,1.1462.3394.3751,0,.672-.0973.8895-.2938.2179-.1965.3264-.4572.3264-.7814,0-.4269-.2751-.885-.8256-1.3762-.5506-.4903-1.4619-.9832-2.7331-1.4789v-.0509c.6827.0429,1.2971-.0304,1.8432-.2179s.9797-.4903,1.2998-.9091c.3197-.4179.48-.943.48-1.5744,0-.8109-.2608-1.4664-.781-1.9656-.5206-.4992-1.3315-.7484-2.4326-.7484-.6742,0-1.2994.1107-1.8754.3322-.576.2224-1.044.5983-1.4021,1.127-.3411.4867-.5867,1.1609-.7359,2.0227-.15.8627-.2242,1.8905-.2242,3.0854,0,.7341.0384,1.319.1152,1.7539.0768.4358.2108.7493.4028.9413ZM101.7751,4.7916c.1197-.209.2902-.3778.5122-.5063.2219-.1277.4907-.192.8064-.192.4693,0,.8171.1116,1.0435.3331.2259.2224.3394.5126.3394.8707,0,.2474-.0728.4635-.2179.6466-.1451.184-.3389.326-.5823.4287s-.5144.1536-.8131.1536c-.4184,0-.7345-.1-.9471-.301-.2134-.2-.3206-.4546-.3206-.7618,0-.2384.0598-.4626.1795-.6716Z"/><path class="uuid-f90207e5-e323-40a9-8a89-f72c7c24004a" d="M108.087,11.0964c.1706.2992.4523.5251.8448.6787s.8877.2304,1.4851.2304c.3411,0,.6827-.0188,1.0243-.0572.3411-.0393.6658-.092.973-.1607.3072-.0679.5675-.1447.781-.2304.2987-.1277.5122-.2751.6403-.4412.1277-.167.192-.3652.192-.5956,0-.3331-.1304-.5698-.3907-.7109-.2603-.1402-.655-.2108-1.1842-.2108-.3072,0-.6336.017-.9792.0509-.346.0339-.685.0831-1.0181.1473-.2871.0555-.5402.1239-.7701.2012.0593-.1864.1005-.3919.1111-.6299.0125-.2902,0-.5805-.0384-.8707-.0288-.2153-.0746-.4023-.1288-.5753.3352.0447.6718.087,1.0183.1145.4269.0339.8453.0509,1.2547.0509.6658,0,1.1373-.0911,1.4146-.2751.2773-.1831.4162-.4072.4162-.6725,0-.2384-.1215-.4412-.3648-.6082-.2434-.1661-.6595-.2492-1.2485-.2492-.2728,0-.5715.0125-.8962.0384-.3242.0259-.6399.0572-.9471.0956-.2426.0303-.4475.0661-.6315.1045.0945-.2884.1581-.5864.177-.8975.0177-.2998-.0107-.5826-.0689-.8549.3652.0268.7244.0494,1.0673.0609.397.0125.7533.0188,1.069.0188.7426,0,1.2886-.1,1.6387-.301.3501-.2.5251-.4965.5251-.8895,0-.376-.1496-.6617-.4483-.8582-.2987-.1956-.8278-.2938-1.5874-.2938-.5291,0-1.0368.0357-1.5235.1089-.4863.0723-.9198.192-1.2994.3581-.38.1661-.6809.3947-.9024.685-.1366.1965-.2585.4635-.3652.8002-.1067.3376-.1898.7725-.2496,1.3056-.0598.534-.0893,1.2101-.0893,2.029,0,.8796.0402,1.5708.1215,2.0745.0808.5037.2067.9136.3778,1.2288Z"/><path class="uuid-f90207e5-e323-40a9-8a89-f72c7c24004a" d="M121.0431,4.747c-.0683.5974-.1366,1.2181-.205,1.862-.0683.6448-.1237,1.2788-.1661,1.9013-.0429.6233-.0643,1.2083-.0643,1.7539,0,.4608.0469.8198.1411,1.0761.0938.2554.2304.4349.4095.5376.1795.1018.384.1536.6144.1536.4269,0,.7685-.1625,1.0243-.4867.2563-.3242.384-.8832.384-1.6771,0-.6064-.0192-1.261-.0576-1.9656-.0384-.7037-.096-1.3904-.1728-2.0611-.0768-.6698-.1791-1.2565-.3072-1.7602-.1197-.5117-.288-.9064-.5055-1.1842-.2179-.2777-.5229-.4162-.9154-.4162-.2478,0-.4952.1134-.7426.3394-.2478.2259-.4889.6037-.7234,1.1333-.2349.5287-.4635,1.2458-.685,2.1504h-.0513c-.2304-.8787-.4693-1.5637-.7171-2.0549-.2474-.4903-.5014-.8341-.7618-1.0306s-.5269-.2947-.8002-.2947c-.367,0-.6658.1348-.8962.4036s-.397.7189-.4992,1.3503c-.0598.3501-.1152.7582-.1665,1.2234-.0509.4653-.0938.9448-.1277,1.4396-.0344.4956-.0621.9734-.0835,1.4342s-.0317.8662-.0317,1.2163c0,.6742.1,1.1583.3005,1.453s.5099.442.9283.442c.3072,0,.5506-.0839.7296-.25.1795-.1661.3032-.392.3715-.6787.0683-.2858.1023-.6037.1023-.9538,0-.3331-.0107-.7082-.0317-1.1261-.0214-.4188-.0513-.8627-.0897-1.3315-.0384-.4697-.0768-.935-.1152-1.3958s-.079-.8957-.1219-1.3056h.0513c.2219.9386.4291,1.6682.6211,2.1888s.3925.8859.6015,1.0949.4376.3135.685.3135c.4014,0,.7662-.2858,1.0949-.8573.3282-.5715.6376-1.4512.9279-2.6371h.0513Z"/><path class="uuid-f90207e5-e323-40a9-8a89-f72c7c24004a" d="M124.9603,11.0964c.1706.2992.4523.5251.8448.6787s.8877.2304,1.4851.2304c.3411,0,.6827-.0188,1.0243-.0572.3411-.0393.6658-.092.973-.1607.3072-.0679.5675-.1447.781-.2304.2987-.1277.5122-.2751.6403-.4412.1277-.167.192-.3652.192-.5956,0-.3331-.1304-.5698-.3907-.7109-.2603-.1402-.655-.2108-1.1842-.2108-.3072,0-.6336.017-.9792.0509-.346.0339-.685.0831-1.0181.1473-.2871.0555-.5402.1239-.7701.2012.0593-.1864.1005-.3919.1111-.6299.0125-.2902,0-.5805-.0384-.8707-.0288-.2153-.0746-.4023-.1288-.5753.3352.0447.6718.087,1.0183.1145.4269.0339.8453.0509,1.2547.0509.6658,0,1.1373-.0911,1.4146-.2751.2773-.1831.4162-.4072.4162-.6725,0-.2384-.1215-.4412-.3648-.6082-.2434-.1661-.6595-.2492-1.2485-.2492-.2728,0-.5715.0125-.8962.0384-.3242.0259-.6399.0572-.9471.0956-.2426.0303-.4475.0661-.6315.1045.0945-.2884.1581-.5864.177-.8975.0177-.2998-.0107-.5826-.0689-.8549.3652.0268.7244.0494,1.0673.0609.397.0125.7533.0188,1.069.0188.7426,0,1.2886-.1,1.6387-.301.3501-.2.5251-.4965.5251-.8895,0-.376-.1496-.6617-.4483-.8582-.2987-.1956-.8278-.2938-1.5874-.2938-.5291,0-1.0368.0357-1.5235.1089-.4863.0723-.9198.192-1.2994.3581-.38.1661-.6809.3947-.9024.685-.1366.1965-.2585.4635-.3652.8002-.1067.3376-.1898.7725-.2496,1.3056-.0598.534-.0893,1.2101-.0893,2.029,0,.8796.0402,1.5708.1215,2.0745.0808.5037.2067.9136.3778,1.2288Z"/><path class="uuid-f90207e5-e323-40a9-8a89-f72c7c24004a" d="M135.7142,11.7751c.3925.1536.8877.2304,1.4851.2304.3411,0,.6827-.0188,1.0243-.0572.3411-.0393.6658-.092.973-.1607.3072-.0679.5675-.1447.781-.2304.2987-.1277.5122-.2751.6403-.4412.1277-.167.192-.3652.192-.5956,0-.3331-.1304-.5698-.3907-.7109-.2603-.1402-.655-.2108-1.1842-.2108-.3072,0-.6336.017-.9792.0509-.346.0339-.685.0831-1.0181.1473-.2871.0555-.5402.1239-.7701.2012.0593-.1864.1005-.3919.1111-.6299.0125-.2902,0-.5805-.0384-.8707-.0288-.2153-.0746-.4023-.1288-.5753.3352.0447.6718.087,1.0183.1145.4269.0339.8453.0509,1.2547.0509.6658,0,1.1373-.0911,1.4146-.2751.2773-.1831.4162-.4072.4162-.6725,0-.2384-.1215-.4412-.3648-.6082-.2434-.1661-.6595-.2492-1.2485-.2492-.2728,0-.5715.0125-.8962.0384-.3242.0259-.6399.0572-.9471.0956-.2426.0303-.4475.0661-.6315.1045.0945-.2884.1581-.5864.177-.8975.0177-.2998-.0107-.5826-.0689-.8549.3652.0268.7244.0494,1.0673.0609.397.0125.7533.0188,1.069.0188.7426,0,1.2886-.1,1.6387-.301.3501-.2.5251-.4965.5251-.8895,0-.376-.1496-.6617-.4483-.8582-.2987-.1956-.8278-.2938-1.5874-.2938-.5291,0-1.0368.0357-1.5235.1089-.4863.0723-.9198.192-1.2994.3581-.38.1661-.6809.3947-.9024.685-.1366.1965-.2585.4635-.3652.8002-.1067.3376-.1898.7725-.2496,1.3056-.0598.534-.0893,1.2101-.0893,2.029,0,.8796.0402,1.5708.1215,2.0745.0808.5037.2067.9136.3778,1.2288.1706.2992.4523.5251.8448.6787Z"/><path class="uuid-f90207e5-e323-40a9-8a89-f72c7c24004a" d="M66.671,22.771c-.1706-.3161-.4563-.5974-.8573-.8457-.401-.2474-.952-.4688-1.6512-.6653-.4447-.1277-.7769-.2456-.9993-.3519-.2215-.1072-.3688-.2116-.4412-.3143-.0732-.1018-.1089-.2125-.1089-.3322,0-.2563.1045-.442.3135-.5572s.5099-.1724.9029-.1724c.2384,0,.4822.017.7296.0509s.4867.0679.7171.1027c.2304.0339.4304.0509.6019.0509.4519,0,.7868-.1063,1.0047-.3197s.326-.4912.326-.8323c0-.4608-.234-.8171-.7037-1.069s-1.0841-.3778-1.8432-.3778c-.342,0-.7028.0339-1.0824.1018-.3795.0688-.751.175-1.1136.3206-.3626.1447-.6912.3394-.9859.5823s-.5296.5403-.7037.8895c-.175.3501-.2626.7644-.2626,1.2422,0,.401.0848.7466.2554,1.0368.1715.2902.442.534.8135.7296.3715.1965.8555.367,1.453.5126.4269.1107.7528.2134.9797.3072.2259.0938.3813.1902.4671.2876.0848.0982.1277.2161.1277.3527,0,.1965-.092.3519-.2751.4671-.184.1152-.4626.1724-.8386.1724-.2813,0-.6019-.0313-.96-.0956-.359-.0643-.6832-.0964-.9734-.0964-.4608,0-.7912.0857-.9922.2563-.2.1706-.301.4358-.301.7939,0,.3242.1009.5885.301.7939.2009.2045.459.367.7751.4867.3152.1197.6528.2027,1.0109.2492.359.0473.6957.0705,1.0118.0705.7082,0,1.3288-.1152,1.8629-.3456.5331-.2304.9493-.5528,1.2476-.9663.2992-.4144.4483-.8939.4483-1.4405,0-.401-.0857-.76-.2563-1.0752Z"/><path class="uuid-f90207e5-e323-40a9-8a89-f72c7c24004a" d="M68.0927,22.4245c0,.8796.0402,1.5708.1215,2.0745s.2072.9136.3778,1.2288c.1706.2992.4519.5251.8448.6787s.8877.2304,1.4851.2304c.3411,0,.6832-.0188,1.0243-.0572.3411-.0393.6653-.092.9725-.1607.3081-.0679.568-.1447.7814-.2304.2983-.1277.5117-.2751.6403-.4412.1277-.167.192-.3652.192-.5956,0-.3331-.1304-.5698-.3903-.7109-.2608-.1402-.6555-.2108-1.185-.2108-.3072,0-.6332.017-.9788.0509s-.685.0831-1.0181.1473c-.2875.0555-.5401.1239-.7702.2013.059-.1863.1002-.3919.1112-.6299.0125-.2902,0-.5805-.0384-.8707-.0285-.2153-.0745-.4023-.1288-.5753.3352.0447.6718.087,1.0183.1145.4269.0339.8448.0509,1.2547.0509.6662,0,1.1368-.0911,1.4146-.2751.2777-.1831.4162-.4072.4162-.6725,0-.2384-.1215-.4412-.3644-.6082-.2438-.1661-.6599-.2492-1.2485-.2492-.2733,0-.5724.0125-.8966.0384s-.6403.0572-.9475.0956c-.2426.0303-.4471.0661-.6311.1045.0947-.2884.1577-.5864.1765-.8975.0181-.2998-.0105-.5826-.0685-.8549.3653.0268.7245.0494,1.0678.0609.3965.0125.7528.0188,1.069.0188.7421,0,1.2886-.1,1.6387-.301.3492-.2.5242-.4965.5242-.8895,0-.376-.1491-.6617-.4474-.8582-.2992-.1956-.8278-.2938-1.5878-.2938-.5296,0-1.0368.0357-1.5235.1089-.4867.0723-.9198.192-1.2994.3581s-.6805.3947-.9029.685c-.1366.1965-.2581.4635-.3644.8002-.1072.3376-.1902.7725-.25,1.3056-.0598.534-.0893,1.2101-.0893,2.029Z"/><path class="uuid-f90207e5-e323-40a9-8a89-f72c7c24004a" d="M76.3497,17.7584c-.2304.2688-.3974.7189-.4992,1.3503-.0598.3501-.1152.7582-.167,1.2234-.0509.4653-.0938.9448-.1277,1.4396-.0339.4956-.0625.9734-.0831,1.4342-.0214.4608-.0321.8662-.0321,1.2163,0,.6742.1,1.1583.301,1.453.2.2947.5099.442.9279.442.3072,0,.551-.0839.7296-.25.1795-.1661.3027-.392.3715-.6787.0679-.2858.1027-.6037.1027-.9538,0-.3331-.0107-.7082-.0321-1.1261-.0214-.4188-.0518-.8627-.0902-1.3315-.0384-.4697-.0768-.935-.1152-1.3958s-.0786-.8957-.1215-1.3056h.0518c.2215.9386.4287,1.6682.6207,2.1888s.392.8859.6019,1.0949c.209.209.4367.3135.685.3135.401,0,.7653-.2858,1.094-.8573s.6385-1.4512.9287-2.6371h.0509c-.0688.5974-.1366,1.2181-.2045,1.862-.0688.6448-.1241,1.2788-.167,1.9013-.0429.6233-.0634,1.2083-.0634,1.7539,0,.4608.0464.8198.1402,1.0761.0938.2554.2304.4349.4099.5376.1795.1018.384.1536.6144.1536.4269,0,.768-.1625,1.0243-.4867s.384-.8832.384-1.6771c0-.6064-.0188-1.261-.0572-1.9656-.0384-.7037-.0964-1.3904-.1732-2.0611-.0768-.6698-.1795-1.2565-.3072-1.7602-.1197-.5117-.2876-.9064-.5055-1.1842s-.5233-.4162-.9154-.4162c-.2483,0-.4956.1134-.743.3394s-.4885.6037-.7234,1.1333c-.2349.5287-.4626,1.2458-.685,2.1504h-.0509c-.2304-.8787-.4697-1.5637-.7171-2.0549-.2474-.4903-.501-.8341-.7618-1.0306-.2599-.1965-.5269-.2947-.8002-.2947-.367,0-.6653.1348-.8957.4036Z"/><path class="uuid-f90207e5-e323-40a9-8a89-f72c7c24004a" d="M85.7336,18.7121c-.2733.4867-.4697,1.1502-.5885,1.9906-.1197.8412-.1795,1.8548-.1795,3.0408,0,.7082.0357,1.2761.1089,1.703.0723.4269.2045.7341.3965.9216s.459.2813.8002.2813c.4179,0,.7359-.1429.9538-.4287s.3268-.7019.3268-1.2485c0-.2643-.0152-.5519-.0455-.8636-.0295-.3117-.0679-.6171-.1152-.9154-.0252-.1621-.0544-.3076-.0861-.4419.2284.0948.4544.1703.6755.2115.2768.0509.5358.0768.7743.0768.5805,0,1.1011-.1179,1.5619-.3527.4608-.234.8261-.5653,1.0949-.9922.2688-.426.4036-.9296.4036-1.5101,0-.8457-.2518-1.528-.7555-2.0486s-1.2851-.7814-2.3433-.7814c-.751,0-1.3779.1223-1.8816.3652s-.8707.5742-1.1011.9922ZM87.4107,19.698c.1277-.2393.3135-.4287.5572-.5698.2429-.1411.5224-.2116.8386-.2116.4349,0,.7501.0982.9466.2947s.2947.4438.2947.743c0,.4608-.1518.8171-.4546,1.069s-.693.3778-1.1708.3778c-.4099,0-.7135-.075-.9091-.2242-.1965-.1491-.2947-.3733-.2947-.6725,0-.2983.0643-.5671.192-.8064Z"/><path class="uuid-f90207e5-e323-40a9-8a89-f72c7c24004a" d="M99.8935,25.4206c0-.4269-.2759-.885-.8261-1.3762-.5501-.4903-1.4619-.9832-2.7336-1.4789v-.0509c.6832.0429,1.2976-.0304,1.8441-.2179.5456-.1875.9788-.4903,1.2994-.9091.3197-.4179.4796-.943.4796-1.5744,0-.8109-.2599-1.4664-.7805-1.9656s-1.3315-.7484-2.4326-.7484c-.6742,0-1.2994.1107-1.8754.3322-.576.2224-1.044.5983-1.4021,1.127-.3411.4867-.5867,1.1609-.7359,2.0227-.15.8627-.2242,1.8905-.2242,3.0854,0,.7341.0384,1.319.1152,1.7539.0768.4358.2108.7493.4028.9413s.4635.2876.8135.2876c.4349,0,.7421-.1384.9216-.4162.1795-.2768.2688-.676.2688-1.1967,0-.2384-.0107-.4947-.0321-.768s-.0464-.5376-.0768-.7939c-.0295-.2563-.0661-.4733-.1089-.6528h.0518c.5197.9305.9984,1.6619,1.4333,2.196.4358.5331.8475.9127,1.236,1.1386.3876.2268.7698.3394,1.1458.3394.3751,0,.6716-.0973.8895-.2938s.3268-.4572.3268-.7814ZM96.1937,21.1573c-.4188,0-.735-.1-.9475-.301-.2134-.2-.3206-.4546-.3206-.7618,0-.2384.0598-.4626.1795-.6716s.2902-.3778.5117-.5063c.2224-.1277.4912-.192.8073-.192.4688,0,.8171.1116,1.0431.3331.2259.2224.3394.5126.3394.8707,0,.2474-.0723.4635-.2179.6466-.1447.184-.3394.326-.5823.4287s-.5144.1536-.8127.1536Z"/><path class="uuid-f90207e5-e323-40a9-8a89-f72c7c24004a" d="M103.8237,17.2467c-.4863.0723-.9198.192-1.2994.3581-.38.1661-.6805.3947-.9029.685-.1366.1965-.2581.4635-.3644.8002-.1072.3376-.1902.7725-.25,1.3056-.0598.534-.0893,1.2101-.0893,2.029,0,.8796.0402,1.5708.1215,2.0745s.2072.9136.3778,1.2288c.1706.2992.4519.5251.8448.6787.3925.1536.8877.2304,1.4851.2304.3411,0,.6827-.0188,1.0243-.0572.3411-.0393.6658-.092.973-.1607.3072-.0679.5675-.1447.781-.2304.2987-.1277.5122-.2751.6403-.4412.1277-.167.192-.3652.192-.5956,0-.3331-.1304-.5698-.3907-.7109-.2603-.1402-.655-.2108-1.1842-.2108-.3072,0-.6336.017-.9792.0509-.346.0339-.685.0831-1.0181.1473-.2871.0555-.5402.1239-.7701.2012.0593-.1864.1005-.3919.1111-.6299.0125-.2902,0-.5805-.0384-.8707-.0288-.2153-.0746-.4023-.1288-.5753.3352.0447.6718.087,1.0183.1145.4269.0339.8453.0509,1.2547.0509.6658,0,1.1373-.0911,1.4146-.2751.2773-.1831.4162-.4072.4162-.6725,0-.2384-.1215-.4412-.3648-.6082-.2434-.1661-.6595-.2492-1.2485-.2492-.2728,0-.5715.0125-.8962.0384-.3242.0259-.6399.0572-.9471.0956-.2426.0303-.4475.0661-.6315.1045.0945-.2884.1581-.5864.177-.8975.0177-.2998-.0107-.5826-.0689-.8549.3652.0268.7244.0494,1.0673.0609.397.0125.7533.0188,1.069.0188.7426,0,1.2886-.1,1.6387-.301.3501-.2.5251-.4965.5251-.8895,0-.376-.1496-.6617-.4483-.8582-.2987-.1956-.8278-.2938-1.5874-.2938-.5291,0-1.0368.0357-1.5235.1089Z"/><path class="uuid-f90207e5-e323-40a9-8a89-f72c7c24004a" d="M118.8404,20.4723c-.0768-.6698-.1791-1.2565-.3072-1.7602-.1197-.5117-.288-.9064-.5055-1.1842-.2179-.2777-.5229-.4162-.9154-.4162-.2478,0-.4952.1134-.7426.3394-.2478.2259-.4889.6037-.7234,1.1333-.2349.5287-.4635,1.2458-.685,2.1504h-.0513c-.2304-.8787-.4693-1.5637-.7171-2.0549-.2474-.4903-.5014-.8341-.7618-1.0306s-.5269-.2947-.8002-.2947c-.367,0-.6658.1348-.8962.4036s-.397.7189-.4992,1.3503c-.0598.3501-.1152.7582-.1665,1.2234-.0509.4653-.0938.9448-.1277,1.4396-.0344.4956-.0621.9734-.0835,1.4342s-.0317.8662-.0317,1.2163c0,.6742.1,1.1583.3005,1.453s.5099.442.9283.442c.3072,0,.5506-.0839.7296-.25.1795-.1661.3032-.392.3715-.6787.0683-.2858.1023-.6037.1023-.9538,0-.3331-.0107-.7082-.0317-1.1261-.0214-.4188-.0513-.8627-.0897-1.3315-.0384-.4697-.0768-.935-.1152-1.3958s-.079-.8957-.1219-1.3056h.0513c.2219.9386.4291,1.6682.6211,2.1888s.3925.8859.6015,1.0949.4376.3135.685.3135c.4014,0,.7662-.2858,1.0949-.8573.3282-.5715.6376-1.4512.9279-2.6371h.0513c-.0683.5974-.1366,1.2181-.205,1.862-.0683.6448-.1237,1.2788-.1661,1.9013-.0429.6233-.0643,1.2083-.0643,1.7539,0,.4608.0469.8198.1411,1.0761.0938.2554.2304.4349.4095.5376.1795.1018.384.1536.6144.1536.4269,0,.7685-.1625,1.0243-.4867.2563-.3242.384-.8832.384-1.6771,0-.6064-.0192-1.261-.0576-1.9656-.0384-.7037-.096-1.3904-.1728-2.0611Z"/><path class="uuid-f90207e5-e323-40a9-8a89-f72c7c24004a" d="M123.1805,26.6369c.3411,0,.6827-.0188,1.0243-.0572.3411-.0393.6658-.092.973-.1607.3072-.0679.5675-.1447.781-.2304.2987-.1277.5122-.2751.6403-.4412.1277-.167.192-.3652.192-.5956,0-.3331-.1304-.5698-.3907-.7109-.2603-.1402-.655-.2108-1.1842-.2108-.3072,0-.6336.017-.9792.0509-.346.0339-.685.0831-1.0181.1473-.2871.0555-.5402.1239-.7701.2012.0593-.1864.1005-.3919.1111-.6299.0125-.2902,0-.5805-.0384-.8707-.0288-.2153-.0746-.4023-.1288-.5753.3352.0447.6718.087,1.0183.1145.4269.0339.8453.0509,1.2547.0509.6658,0,1.1373-.0911,1.4146-.2751.2773-.1831.4162-.4072.4162-.6725,0-.2384-.1215-.4412-.3648-.6082-.2434-.1661-.6595-.2492-1.2485-.2492-.2728,0-.5715.0125-.8962.0384-.3242.0259-.6399.0572-.9471.0956-.2426.0303-.4475.0661-.6315.1045.0945-.2884.1581-.5864.177-.8975.0177-.2998-.0107-.5826-.0689-.8549.3652.0268.7244.0494,1.0673.0609.397.0125.7533.0188,1.069.0188.7426,0,1.2886-.1,1.6387-.301.3501-.2.5251-.4965.5251-.8895,0-.376-.1496-.6617-.4483-.8582-.2987-.1956-.8278-.2938-1.5874-.2938-.5291,0-1.0368.0357-1.5235.1089-.4863.0723-.9198.192-1.2994.3581-.38.1661-.6809.3947-.9024.685-.1366.1965-.2585.4635-.3652.8002-.1067.3376-.1898.7725-.2496,1.3056-.0598.534-.0893,1.2101-.0893,2.029,0,.8796.0402,1.5708.1215,2.0745.0808.5037.2067.9136.3778,1.2288.1706.2992.4523.5251.8448.6787s.8877.2304,1.4851.2304Z"/><path class="uuid-f90207e5-e323-40a9-8a89-f72c7c24004a" d="M129.7572,24.4822c.1413-.6765.2627-1.3958.3555-2.1792.1067-.9002.1603-1.7896.1603-2.6693,0-.4349-.0366-.8296-.1089-1.1842-.0728-.3536-.1942-.6376-.3648-.8511-.171-.2134-.4054-.3206-.7042-.3206-.3072,0-.559.1072-.7555.3206s-.3416.5635-.4354,1.0493c-.0598.3501-.1085.843-.1469,1.4789s-.0576,1.3038-.0576,2.004c0,.9386.0384,1.6941.1152,2.2656.0768.5724.1875.9984.3327,1.2806.1795.3501.4179.5974.7171.7421.2987.1456.7296.2179,1.2931.2179.2898,0,.5907-.0232.9024-.0705.3117-.0464.6122-.1125.9024-.1983.2902-.0848.5461-.1795.7685-.2813.3925-.1965.7019-.4403.9279-.7305.2264-.2893.3394-.593.3394-.9082,0-.3331-.0982-.5912-.2943-.7751-.1965-.1831-.4912-.2751-.8837-.2751-.3327,0-.6957.0509-1.0882.1536s-.7832.2474-1.1712.4349c-.2876.1395-.5514.3099-.8038.4958Z"/><path class="uuid-f90207e5-e323-40a9-8a89-f72c7c24004a" d="M142.0127,25.2161c.0853-.5376.1473-1.1163.1857-1.7352s.0576-1.227.0576-1.8245c0-.6055-.0259-1.2011-.0768-1.7861-.0513-.584-.1241-1.0815-.2179-1.4914-.0938-.4438-.2389-.7725-.4354-.9859-.1965-.2125-.4693-.3197-.8194-.3197-.3581,0-.6251.1027-.8002.3072s-.2621.5251-.2621.96c0,.3929.0272.843.0831,1.3512.05.4577.1346.9183.2369,1.3805-.4522-.1065-.9335-.1766-1.4662-.1838-.5268-.0064-1.0346.0494-1.5317.1402.1455-.3949.2705-.8032.3604-1.2351.1107-.5331.1665-1.0091.1665-1.4271s-.088-.7251-.2626-.9216c-.175-.1965-.4246-.2947-.7488-.2947-.3501,0-.6274.1107-.8323.3331-.205.2215-.3541.5501-.4483.9859-.1107.4947-.1983,1.0859-.2621,1.7727-.0643.6876-.096,1.3976-.096,2.1317,0,.6064.0192,1.1842.0576,1.7352.0384.5501.0871,1.0091.1469,1.3762.0853.4438.2286.751.4291.9216s.4586.2563.7747.2563c.384,0,.6867-.1107.9087-.3331.2219-.2215.3331-.5894.3331-1.1011,0-.5376-.0728-1.0734-.2179-1.6066-.1045-.3839-.2329-.7515-.3595-1.1203.5223.0971,1.0566.1564,1.608.1603.47.0033.9196-.0455,1.3594-.1196-.0937.3528-.1757.7078-.2329,1.0671-.0813.5072-.1215.9966-.1215,1.4655,0,.5715.0893.9734.2688,1.2038.1791.2304.4693.3456.8703.3456.3925,0,.6934-.1107.9029-.3331.209-.2215.3563-.5805.4416-1.0752Z"/><path class="uuid-f90207e5-e323-40a9-8a89-f72c7c24004a" d="M150.0018,18.2004c-.6747-.384-1.4681-.5769-2.3813-.5769-.8622,0-1.6155.1991-2.2598.5956-.6443.3974-1.144.9493-1.4981,1.6584-.3541.7082-.5309,1.5315-.5309,2.4701,0,.8457.1746,1.5771.5247,2.196s.8448,1.0949,1.4851,1.428c.6403.3322,1.3869.4992,2.2406.4992.9216,0,1.7218-.1732,2.4005-.5188.6783-.3456,1.2051-.8368,1.5811-1.4726.3755-.6349.5631-1.3931.5631-2.2719,0-.9136-.1857-1.7137-.5568-2.4005-.3715-.6867-.8944-1.2226-1.5682-1.6066ZM149.5213,22.9112c-.1661.3251-.401.576-.7042.7555-.3027.1795-.655.2688-1.056.2688-.3925,0-.7403-.0893-1.0435-.2688-.3027-.1795-.5398-.4304-.7104-.7555-.171-.3242-.2559-.6992-.2559-1.1261s.0848-.8002.2559-1.1208c.1706-.3197.4077-.5715.7104-.7555.3032-.1831.651-.2751,1.0435-.2751.401,0,.7533.092,1.056.2751.3032.184.538.4358.7042.7555.1665.3206.25.6939.25,1.1208s-.0835.8019-.25,1.1261Z"/><path class="uuid-f90207e5-e323-40a9-8a89-f72c7c24004a" d="M158.899,22.2968c.5461-.1875.9797-.4903,1.2998-.9091.3197-.4179.48-.943.48-1.5744,0-.8109-.2608-1.4664-.781-1.9656-.5206-.4992-1.3315-.7484-2.4326-.7484-.6742,0-1.2994.1107-1.8754.3322-.5764.2224-1.0435.5983-1.4021,1.127-.3416.4867-.5867,1.1609-.7363,2.0227-.1491.8627-.2237,1.8905-.2237,3.0854,0,.7341.0384,1.319.1152,1.7539.0768.4358.2112.7493.4032.9413s.4626.2876.8127.2876c.4354,0,.7426-.1384.9221-.4162.1791-.2768.2688-.676.2688-1.1967,0-.2384-.0107-.4947-.0321-.768s-.0469-.5376-.0768-.7939-.0661-.4733-.1085-.6528h.0509c.5206.9305.9989,1.6619,1.4342,2.196.4349.5331.8466.9127,1.2351,1.1386.3885.2268.7702.3394,1.1462.3394.3751,0,.672-.0973.8895-.2938.2179-.1965.3264-.4572.3264-.7814,0-.4269-.2751-.885-.8256-1.3762-.5506-.4903-1.4619-.9832-2.7331-1.4789v-.0509c.6827.0429,1.2971-.0304,1.8432-.2179ZM156.9147,21.1573c-.4184,0-.7341-.1-.9475-.301-.2134-.2-.3197-.4546-.3197-.7618,0-.2384.0594-.4626.1791-.6716.1192-.209.2902-.3778.5122-.5063.2219-.1277.4907-.192.8064-.192.4693,0,.8171.1116,1.0435.3331.2259.2224.3394.5126.3394.8707,0,.2474-.0728.4635-.2179.6466-.1451.184-.3389.326-.5823.4287s-.5144.1536-.8131.1536Z"/><path class="uuid-f90207e5-e323-40a9-8a89-f72c7c24004a" d="M162.3814,23.6792c.2384,0,.4416-.1018.6077-.3072.1665-.2045.3094-.5376.4291-.9984.1107-.4179.1983-.9279.2626-1.5298.0639-.6019.096-1.2011.096-1.7986,0-.6403-.0813-1.1333-.2434-1.4789s-.4438-.5188-.8448-.5188c-.3331,0-.5934.0902-.781.2688-.188.1795-.3184.4697-.3907.8707-.0723.4019-.1085.943-.1085,1.6262,0,1.3654.0723,2.3513.2175,2.9577.1451.6055.397.9082.7555.9082Z"/><path class="uuid-f90207e5-e323-40a9-8a89-f72c7c24004a" d="M163.4887,24.7419c-.2009-.1956-.4889-.2938-.8645-.2938-.2219,0-.4331.042-.6336.1277s-.3648.2152-.493.3903-.192.4036-.192.685c0,.3161.1027.5698.3072.7618.205.192.4992.2884.8837.2884.3581,0,.6635-.092.9154-.2759.2514-.1831.3773-.4796.3773-.8895,0-.3331-.1-.5974-.3005-.7939Z"/><polygon class="uuid-f90207e5-e323-40a9-8a89-f72c7c24004a" points="65.899 40.7243 65.899 39.5795 60.3731 39.5795 60.3731 48.3934 65.9507 48.3934 65.9507 47.2486 61.7029 47.2486 61.7029 44.5502 65.6107 44.5502 65.6107 43.4098 61.7029 43.4098 61.7029 40.7243 65.899 40.7243"/><path class="uuid-f90207e5-e323-40a9-8a89-f72c7c24004a" d="M69.9488,47.4896c-.3873,0-.7015-.0828-.9425-.2475s-.4002-.4099-.4777-.7338l-1.2438.1894c.1065.5853.3927,1.0361.8607,1.3535s1.0716.4756,1.8118.4756c.5337,0,1.0038-.0871,1.4095-.2625s.723-.4164.9511-.7252.3421-.6606.3421-1.0566c0-.468-.1496-.8478-.4476-1.1405s-.7521-.5089-1.36-.6499l-1.0501-.241c-.3647-.0861-.6283-.1969-.7919-.3314s-.2453-.3131-.2453-.5337c0-.255.1216-.4637.3658-.6262s.5476-.2432.9124-.2432c.2668,0,.4895.043.6671.1291s.3195.1969.4239.3314.1818.2765.2302.4261l1.1663-.2066c-.1323-.5164-.4035-.9285-.8134-1.2373s-.9726-.4626-1.687-.4626c-.496,0-.9371.0828-1.3212.2475s-.6854.3938-.9038.6864-.3271.6337-.3271,1.0243c0,.4702.1474.8597.4411,1.1663s.7499.5304,1.3664.6714l1.119.2453c.3152.0721.5498.1775.7037.3185s.2302.3142.2302.5207c0,.255-.1259.4713-.3787.6477s-.5896.2647-1.0114.2647Z"/><path class="uuid-f90207e5-e323-40a9-8a89-f72c7c24004a" d="M75.4962,48.2987c.2926.1259.6079.1861.9468.1808.2066-.0032.3787-.0194.5164-.0495s.2442-.0592.3185-.0882l-.2324-1.063c-.043.0086-.1033.0204-.1808.0344s-.1678.0215-.2711.0215c-.1409,0-.2701-.0226-.3895-.0667s-.2163-.1291-.2905-.2539-.1119-.312-.1119-.5616v-3.6366h1.3557v-1.0329h-1.3557v-1.5838h-1.2868v1.5838h-.9683v1.0329h.9683v3.9034c0,.3992.0904.7305.2711.9941s.4175.4594.7101.5853Z"/><path class="uuid-f90207e5-e323-40a9-8a89-f72c7c24004a" d="M83.7636,48.3934v-4.3897c0-.482-.0828-.8747-.2496-1.1771s-.3798-.5358-.6391-.6993-.538-.2765-.8349-.3378-.5778-.0925-.8414-.0925c-.3992,0-.779.057-1.1405.17s-.6811.2937-.9576.5423-.4874.5735-.6305.9748l1.2093.2754c.0947-.2324.2658-.4444.5143-.6348s.5885-.2862,1.0221-.2862c.4164,0,.7295.1033.9404.3099s.3163.4981.3163.8736v.0301c0,.1549-.0559.2668-.1678.3357s-.2916.1184-.538.1485-.5681.0678-.964.114c-.3131.0377-.6197.0915-.921.1635s-.5735.1775-.8177.3185-.4379.3314-.581.5724-.2152.5476-.2152.921c0,.4336.0979.7994.2948,1.0974s.4637.5261.8026.6821.7176.2346,1.1362.2346c.3647,0,.6768-.0527.9382-.1592s.4745-.2399.6412-.4002.2916-.3239.3744-.4906h.0516v.9038h1.2567ZM82.4768,46.0092c0,.2614-.0667.5057-.2001.7338s-.3271.4121-.581.553-.5584.2109-.9145.2109c-.3647,0-.6638-.0807-.8995-.2432s-.3529-.4024-.3529-.7209c0-.2292.0613-.4142.1829-.553s.2851-.2464.4906-.3206.4325-.128.6821-.1592c.1065-.014.2378-.0323.3959-.0538s.3195-.0463.4863-.0732.3152-.0603.4454-.099.2184-.0807.2647-.127v.8521Z"/><polygon class="uuid-f90207e5-e323-40a9-8a89-f72c7c24004a" points="80.7338 40.9007 81.7623 40.9007 83.0965 38.9167 81.7408 38.9167 80.7338 40.9007"/><path class="uuid-f90207e5-e323-40a9-8a89-f72c7c24004a" d="M93.1369,41.9788c-.3389-.1883-.7327-.2819-1.1835-.2819-.496,0-.907.1065-1.233.3185s-.5649.4938-.7166.8435h-.0818v-1.0759h-1.2352v6.6104h1.2868v-3.9249c0-.3497.0667-.6488.2001-.8973s.3152-.4368.5466-.5659.496-.1937.794-.1937c.4357,0,.779.1356,1.0286.4067s.3744.6466.3744,1.1254v4.0498h1.2868v-4.2047c0-.5455-.0936-1.0028-.2797-1.3729s-.4487-.6488-.7876-.8371Z"/><path class="uuid-f90207e5-e323-40a9-8a89-f72c7c24004a" d="M100.2229,42.1273c-.2593-.1635-.538-.2765-.8349-.3378s-.5778-.0925-.8414-.0925c-.3992,0-.779.057-1.1405.17s-.6811.2937-.9576.5423-.4874.5735-.6305.9748l1.2093.2754c.0947-.2324.2658-.4444.5143-.6348s.5885-.2862,1.0221-.2862c.4164,0,.7295.1033.9404.3099s.3163.4981.3163.8736v.0301c0,.1549-.0559.2668-.1678.3357s-.2916.1184-.538.1485-.5681.0678-.964.114c-.3131.0377-.6197.0915-.921.1635s-.5735.1775-.8177.3185-.4379.3314-.581.5724-.2152.5476-.2152.921c0,.4336.0979.7994.2948,1.0974s.4637.5261.8026.6821.7176.2346,1.1362.2346c.3647,0,.6768-.0527.9382-.1592s.4745-.2399.6412-.4002.2916-.3239.3744-.4906h.0516v.9038h1.2567v-4.3897c0-.482-.0828-.8747-.2496-1.1771s-.3798-.5358-.6391-.6993ZM99.8249,46.0092c0,.2614-.0667.5057-.2001.7338s-.3271.4121-.581.553-.5584.2109-.9145.2109c-.3647,0-.6638-.0807-.8995-.2432s-.3529-.4024-.3529-.7209c0-.2292.0613-.4142.1829-.553s.2851-.2464.4906-.3206.4325-.128.6821-.1592c.1065-.014.2378-.0323.3959-.0538s.3195-.0463.4863-.0732.3152-.0603.4454-.099.2184-.0807.2647-.127v.8521Z"/><path class="uuid-f90207e5-e323-40a9-8a89-f72c7c24004a" d="M107.3208,44.4685c0-.3497.0678-.6488.2044-.8973s.3239-.4368.5638-.5659.5111-.1937.8155-.1937c.4444,0,.7919.1345,1.0415.4024s.3744.6445.3744,1.1297v4.0498h1.2868v-4.2047c0-.5509-.0941-1.0103-.2819-1.3793s-.4519-.6466-.7919-.8328-.737-.2797-1.19-.2797c-.5132,0-.9296.1044-1.2481.3142s-.5552.4917-.7101.8478h-.0818v-3.2794h-1.2696v8.8139h1.2868v-3.9249Z"/><path class="uuid-f90207e5-e323-40a9-8a89-f72c7c24004a" d="M118.8121,46.9086c.2555-.5111.383-1.1071.383-1.7903,0-.6854-.1275-1.2857-.383-1.7989s-.6138-.9124-1.0759-1.1964-1.0028-.4261-1.6225-.4261-1.1604.142-1.6225.4261-.8204.6832-1.0759,1.1964-.383,1.1136-.383,1.7989c0,.6832.1275,1.2793.383,1.7903s.6138.9081,1.0759,1.1921,1.0028.4261,1.6225.4261,1.1604-.142,1.6225-.4261.8204-.6811,1.0759-1.1921ZM117.7039,46.2803c-.1275.3529-.3233.6359-.5875.8478s-.5966.3185-.9985.3185c-.4045,0-.7397-.1065-1.0049-.3185s-.4621-.4949-.5896-.8478-.1915-.7413-.1915-1.1663c0-.4218.064-.8102.1915-1.1641s.3244-.6391.5896-.8543.6004-.3228,1.0049-.3228c.4019,0,.7343.1076.9985.3228s.46.5003.5875.8543.1915.7424.1915,1.1641c0,.425-.064.8134-.1915,1.1663Z"/><path class="uuid-f90207e5-e323-40a9-8a89-f72c7c24004a" d="M120.6283,41.783v6.6104h1.2868v-4.0368c0-.2873.0689-.5433.2066-.7682s.3249-.4013.5616-.5294.5073-.1915.8112-.1915c.1318,0,.2641.0097.3959.028s.2238.0355.2754.0495v-1.2308c-.0629-.0086-.1501-.0161-.2604-.0215s-.206-.0086-.2862-.0086c-.3873,0-.7338.1022-1.0393.3077s-.5186.4852-.6391.8414h-.0689v-1.0501h-1.2438Z"/><path class="uuid-f90207e5-e323-40a9-8a89-f72c7c24004a" d="M129.582,42.1273c-.2598-.1635-.538-.2765-.8349-.3378s-.5772-.0925-.8414-.0925c-.3986,0-.779.057-1.1405.17s-.6805.2937-.9576.5423-.4869.5735-.6305.9748l1.2093.2754c.0947-.2324.2663-.4444.5143-.6348s.5891-.2862,1.0221-.2862c.4158,0,.7295.1033.9404.3099s.3163.4981.3163.8736v.0301c0,.1549-.0559.2668-.1678.3357s-.291.1184-.538.1485-.5681.0678-.964.114c-.3126.0377-.6197.0915-.921.1635s-.574.1775-.8177.3185-.4374.3314-.581.5724-.2152.5476-.2152.921c0,.4336.0984.7994.2948,1.0974s.4643.5261.8026.6821.7171.2346,1.1362.2346c.3642,0,.6773-.0527.9382-.1592s.475-.2399.6412-.4002.291-.3239.3744-.4906h.0516v.9038h1.2567v-4.3897c0-.482-.0834-.8747-.2496-1.1771s-.3793-.5358-.6391-.6993ZM129.1839,46.0092c0,.2614-.0667.5057-.2001.7338s-.3271.4121-.581.553-.5589.2109-.9145.2109c-.3642,0-.6644-.0807-.8995-.2432s-.3529-.4024-.3529-.7209c0-.2292.0608-.4142.1829-.553s.2857-.2464.4906-.3206.4325-.128.6821-.1592c.106-.014.2383-.0323.3959-.0538s.3201-.0463.4863-.0732.3147-.0603.4454-.099.2189-.0807.2647-.127v.8521Z"/><path class="uuid-f90207e5-e323-40a9-8a89-f72c7c24004a" d="M139.8866,48.3934h1.2567v-8.8139h-1.2868v3.2751h-.0775c-.0775-.1377-.1856-.297-.3249-.4777s-.3341-.3389-.5853-.4756-.5815-.2044-.992-.2044c-.531,0-1.0054.1345-1.4245.4045s-.7483.6585-.9877,1.1663-.3594,1.119-.3594,1.8334.1184,1.3266.3551,1.8355.5638.9005.9812,1.1749.893.411,1.4267.411c.4019,0,.7289-.0678.9812-.2023s.4513-.2926.5961-.4734.2561-.3411.3335-.482h.1076v1.0286ZM139.6779,46.3104c-.1334.3497-.3287.623-.5853.8198s-.5702.2948-.9404.2948c-.3814,0-.702-.1022-.9619-.3077s-.4557-.4842-.5875-.8371-.198-.7499-.198-1.1921c0-.4357.0651-.8274.1958-1.1749s.3249-.6208.5831-.822.581-.3013.9683-.3013c.376,0,.6913.0958.9468.2883s.4492.4605.581.8048.198.7456.198,1.205c0,.4648-.0667.8726-.2001,1.2222Z"/><path class="uuid-f90207e5-e323-40a9-8a89-f72c7c24004a" d="M148.5801,46.7408l-1.2179-.2195c-.0775.2066-.1894.3798-.3357.5207s-.3201.2464-.5207.3163-.4234.1054-.6671.1054c-.376,0-.7042-.0807-.9855-.2432s-.4998-.3981-.6563-.708c-.145-.2871-.2153-.6367-.2259-1.0372h4.691v-.4562c0-.5993-.0802-1.1093-.241-1.53s-.3803-.7628-.6585-1.0264-.5923-.4573-.9425-.581-.7117-.1851-1.0845-.1851c-.6138,0-1.1496.1452-1.6074.4347s-.8134.6929-1.0673,1.2093-.3809,1.1136-.3809,1.7903c0,.6854.127,1.2836.3809,1.7925s.6154.9038,1.0845,1.1835,1.0291.4196,1.6806.4196c.482,0,.9118-.0742,1.2889-.2216s.6913-.3561.9425-.624.4255-.5821.5229-.9404ZM144.1795,43.7132c.1447-.283.3513-.5121.6197-.6886s.5831-.2647.9447-.2647c.333,0,.6235.0764.8715.2281s.4411.3594.5788.6219.2066.5627.2066.9016h-3.4249c.0161-.2832.0772-.5511.2036-.7983Z"/><path class="uuid-f90207e5-e323-40a9-8a89-f72c7c24004a" d="M64.9608,54.2206c-.4185-.2701-.8952-.4045-1.4288-.4045-.4099,0-.7402.0678-.9898.2044s-.4444.2948-.5853.4756-.2485.34-.3228.4777h-.1076v-1.0716h-1.2567v9.0894h1.2868v-3.5075h.0775c.0775.1409.1883.3013.3314.482s.3421.3389.5961.4734.5821.2023.9834.2023c.5337,0,1.0081-.1366,1.4245-.411s.7435-.666.9812-1.1749.3572-1.1211.3572-1.8355-.1194-1.3255-.3594-1.8334-.5692-.8962-.9877-1.1663ZM64.808,58.3994c-.1334.3529-.3292.6316-.5875.8371s-.5799.3077-.964.3077c-.3701,0-.6832-.0979-.9382-.2948s-.4508-.4702-.5853-.8198-.2023-.7574-.2023-1.2222c0-.4594.0656-.8607.198-1.205s.326-.6122.5831-.8048.5713-.2883.9447-.2883c.3873,0,.7112.1001.9705.3013s.4551.4745.5853.822.1958.7392.1958,1.1749c0,.4422-.0667.8392-.2001,1.1921Z"/><polygon class="uuid-f90207e5-e323-40a9-8a89-f72c7c24004a" points="69.9961 51.2209 68.4855 53.0457 68.4855 53.1102 69.6475 53.1102 70.5341 51.9568 71.4163 53.1102 72.5826 53.1102 72.5826 53.0457 71.0677 51.2209 69.9961 51.2209"/><path class="uuid-f90207e5-e323-40a9-8a89-f72c7c24004a" d="M72.1566,54.2421c-.4616-.284-1.0028-.4261-1.6225-.4261s-1.1609.142-1.6225.4261-.8209.6832-1.0759,1.1964-.383,1.1136-.383,1.7989c0,.6832.128,1.2793.383,1.7903s.6143.9081,1.0759,1.1921,1.0028.4261,1.6225.4261,1.1609-.142,1.6225-.4261.8209-.6811,1.0759-1.1921.383-1.1071.383-1.7903c0-.6854-.128-1.2857-.383-1.7989s-.6143-.9124-1.0759-1.1964ZM72.1243,58.3994c-.128.3529-.3239.6359-.5875.8478s-.5971.3185-.9985.3185c-.4045,0-.7392-.1065-1.0049-.3185s-.4616-.4949-.5896-.8478-.1915-.7413-.1915-1.1663c0-.4218.0635-.8102.1915-1.1641s.3239-.6391.5896-.8543.6004-.3228,1.0049-.3228c.4013,0,.7349.1076.9985.3228s.4594.5003.5875.8543.1915.7424.1915,1.1641c0,.425-.0635.8134-.1915,1.1663Z"/><path class="uuid-f90207e5-e323-40a9-8a89-f72c7c24004a" d="M78.0397,53.8031c-.3873,0-.7338.1022-1.0393.3077s-.5186.4852-.6391.8414h-.0689v-1.0501h-1.2438v6.6104h1.2868v-4.0368c0-.2873.0689-.5433.2066-.7682s.3249-.4013.5616-.5294.5068-.1915.8112-.1915c.1323,0,.2636.0097.3959.028s.2238.0355.2754.0495v-1.2308c-.0635-.0086-.1496-.0161-.2604-.0215s-.2055-.0086-.2862-.0086Z"/><path class="uuid-f90207e5-e323-40a9-8a89-f72c7c24004a" d="M87.6067,54.2206c-.4185-.2701-.8952-.4045-1.4288-.4045-.4099,0-.7402.0678-.9898.2044s-.4444.2948-.5853.4756-.2485.34-.3228.4777h-.1076v-1.0716h-1.2567v9.0894h1.2868v-3.5075h.0775c.0775.1409.1883.3013.3314.482s.3421.3389.5961.4734.5821.2023.9834.2023c.5337,0,1.0081-.1366,1.4245-.411s.7435-.666.9812-1.1749.3572-1.1211.3572-1.8355-.1194-1.3255-.3594-1.8334-.5692-.8962-.9877-1.1663ZM87.454,58.3994c-.1334.3529-.3292.6316-.5875.8371s-.5799.3077-.964.3077c-.3701,0-.6832-.0979-.9382-.2948s-.4508-.4702-.5853-.8198-.2023-.7574-.2023-1.2222c0-.4594.0656-.8607.198-1.205s.326-.6122.5831-.8048.5713-.2883.9447-.2883c.3873,0,.7112.1001.9705.3013s.4551.4745.5853.822.1958.7392.1958,1.1749c0,.4422-.0667.8392-.2001,1.1921Z"/><path class="uuid-f90207e5-e323-40a9-8a89-f72c7c24004a" d="M93.3866,53.8031c-.3873,0-.7338.1022-1.0393.3077s-.5186.4852-.6391.8414h-.0689v-1.0501h-1.2438v6.6104h1.2868v-4.0368c0-.2873.0689-.5433.2066-.7682s.3249-.4013.5616-.5294.5068-.1915.8112-.1915c.1323,0,.2636.0097.3959.028s.2238.0355.2754.0495v-1.2308c-.0635-.0086-.1496-.0161-.2604-.0215s-.2055-.0086-.2862-.0086Z"/><path class="uuid-f90207e5-e323-40a9-8a89-f72c7c24004a" d="M99.459,54.2421c-.4616-.284-1.0028-.4261-1.6225-.4261s-1.1609.142-1.6225.4261-.8209.6832-1.0759,1.1964-.383,1.1136-.383,1.7989c0,.6832.128,1.2793.383,1.7903s.6143.9081,1.0759,1.1921,1.0028.4261,1.6225.4261,1.1609-.142,1.6225-.4261.8209-.6811,1.0759-1.1921.383-1.1071.383-1.7903c0-.6854-.128-1.2857-.383-1.7989s-.6143-.9124-1.0759-1.1964ZM99.4268,58.3994c-.128.3529-.3239.6359-.5875.8478s-.5971.3185-.9985.3185c-.4045,0-.7392-.1065-1.0049-.3185s-.4616-.4949-.5896-.8478-.1915-.7413-.1915-1.1663c0-.4218.0635-.8102.1915-1.1641s.3239-.6391.5896-.8543.6004-.3228,1.0049-.3228c.4013,0,.7349.1076.9985.3228s.4594.5003.5875.8543.1915.7424.1915,1.1641c0,.425-.0635.8134-.1915,1.1663Z"/><path class="uuid-f90207e5-e323-40a9-8a89-f72c7c24004a" d="M105.1442,59.4323c-.0775.014-.1678.0215-.2711.0215-.1409,0-.2701-.0226-.3895-.0667s-.2163-.1291-.2905-.2539-.1119-.312-.1119-.5616v-3.6366h1.3557v-1.0329h-1.3557v-1.5838h-1.2868v1.5838h-.9683v1.0329h.9683v3.9034c0,.3992.0904.7305.2711.9941s.4175.4594.7101.5853.6079.1861.9468.1808c.2066-.0032.3787-.0194.5164-.0495s.2442-.0592.3185-.0882l-.2324-1.063c-.043.0086-.1033.0204-.1808.0344Z"/><path class="uuid-f90207e5-e323-40a9-8a89-f72c7c24004a" d="M111.6427,54.5821c-.2781-.2636-.5923-.4573-.9425-.581-.3497-.1237-.7112-.1851-1.0845-.1851-.6143,0-1.1502.1452-1.6074.4347s-.8134.6929-1.0673,1.2093-.3809,1.1136-.3809,1.7903c0,.6854.127,1.2836.3809,1.7925s.6154.9038,1.0845,1.1835,1.0297.4196,1.6806.4196c.482,0,.9118-.0742,1.2889-.2216s.6913-.3561.9425-.624.4255-.5821.5229-.9404l-1.2179-.2195c-.0775.2066-.1894.3798-.3357.5207s-.3201.2464-.5207.3163c-.2012.0699-.4228.1054-.6671.1054-.3755,0-.7047-.0807-.9855-.2432s-.5003-.3981-.6563-.708c-.1445-.2871-.2152-.6367-.2259-1.0372h4.6909v-.4562c0-.5993-.0802-1.1093-.241-1.53s-.3803-.7628-.6585-1.0264ZM107.8563,56.6306c.0159-.2832.0767-.5511.2036-.7983.1452-.283.3518-.5121.6197-.6886s.5831-.2647.9447-.2647c.3325,0,.623.0764.8715.2281.248.1517.4411.3594.5788.6219s.2066.5627.2066.9016h-3.4249Z"/><path class="uuid-f90207e5-e323-40a9-8a89-f72c7c24004a" d="M116.7679,59.4323c-.0775.014-.1678.0215-.2711.0215-.1404,0-.2706-.0226-.3895-.0667s-.2157-.1291-.2905-.2539-.1119-.312-.1119-.5616v-3.6366h1.3557v-1.0329h-1.3557v-1.5838h-1.2868v1.5838h-.9683v1.0329h.9683v3.9034c0,.3992.0904.7305.2711.9941s.4175.4594.7101.5853.6084.1861.9468.1808c.2066-.0032.3787-.0194.5164-.0495s.2437-.0592.3185-.0882l-.2324-1.063c-.043.0086-.1033.0204-.1808.0344Z"/><path class="uuid-f90207e5-e323-40a9-8a89-f72c7c24004a" d="M122.8877,54.2421c-.4621-.284-1.0028-.4261-1.6225-.4261s-1.1604.142-1.6225.4261-.8204.6832-1.0759,1.1964-.383,1.1136-.383,1.7989c0,.6832.1275,1.2793.383,1.7903s.6138.9081,1.0759,1.1921,1.0028.4261,1.6225.4261,1.1604-.142,1.6225-.4261.8204-.6811,1.0759-1.1921.383-1.1071.383-1.7903c0-.6854-.1275-1.2857-.383-1.7989s-.6138-.9124-1.0759-1.1964ZM122.8554,58.3994c-.1275.3529-.3233.6359-.5875.8478s-.5966.3185-.9985.3185c-.4045,0-.7397-.1065-1.0049-.3185s-.4621-.4949-.5896-.8478-.1915-.7413-.1915-1.1663c0-.4218.064-.8102.1915-1.1641s.3244-.6391.5896-.8543.6004-.3228,1.0049-.3228c.4019,0,.7343.1076.9985.3228s.46.5003.5875.8543.1915.7424.1915,1.1641c0,.425-.064.8134-.1915,1.1663Z"/><path class="uuid-f90207e5-e323-40a9-8a89-f72c7c24004a" d="M128.7708,53.8031c-.3873,0-.7338.1022-1.0393.3077s-.5186.4852-.6391.8414h-.0689v-1.0501h-1.2438v6.6104h1.2868v-4.0368c0-.2873.0689-.5433.2066-.7682s.3249-.4013.5616-.5294.5073-.1915.8112-.1915c.1318,0,.2641.0097.3959.028s.2238.0355.2754.0495v-1.2308c-.0629-.0086-.1501-.0161-.2604-.0215s-.206-.0086-.2862-.0086Z"/><path class="uuid-f90207e5-e323-40a9-8a89-f72c7c24004a" d="M136.9219,56.8114l-1.0501-.241c-.3642-.0861-.6283-.1969-.7919-.3314s-.2453-.3131-.2453-.5337c0-.255.1221-.4637.3658-.6262s.5482-.2432.9124-.2432c.2668,0,.489.043.6671.1291s.319.1969.4239.3314.1813.2765.2302.4261l1.1663-.2066c-.1318-.5164-.4029-.9285-.8134-1.2373s-.9726-.4626-1.687-.4626c-.4965,0-.9366.0828-1.3212.2475s-.6859.3938-.9038.6864-.3271.6337-.3271,1.0243c0,.4702.1469.8597.4411,1.1663s.7494.5304,1.3664.6714l1.119.2453c.3158.0721.5503.1775.7037.3185s.2302.3142.2302.5207c0,.255-.1264.4713-.3787.6477s-.5896.2647-1.0114.2647c-.3873,0-.7015-.0828-.9425-.2475s-.4002-.4099-.4777-.7338l-1.2438.1894c.106.5853.3932,1.0361.8607,1.3535s1.0716.4756,1.8118.4756c.5337,0,1.0033-.0871,1.4095-.2625s.723-.4164.9511-.7252.3421-.6606.3421-1.0566c0-.468-.149-.8478-.4476-1.1405s-.7515-.5089-1.36-.6499Z"/><path class="uuid-f90207e5-e323-40a9-8a89-f72c7c24004a" d="M144.5475,54.2421c-.4621-.284-1.0028-.4261-1.6225-.4261s-1.1604.142-1.6225.4261-.8204.6832-1.0759,1.1964-.383,1.1136-.383,1.7989c0,.6832.1275,1.2793.383,1.7903s.6138.9081,1.0759,1.1921,1.0028.4261,1.6225.4261,1.1604-.142,1.6225-.4261.8204-.6811,1.0759-1.1921.383-1.1071.383-1.7903c0-.6854-.1275-1.2857-.383-1.7989s-.6138-.9124-1.0759-1.1964ZM144.5152,58.3994c-.1275.3529-.3233.6359-.5875.8478s-.5966.3185-.9985.3185c-.4045,0-.7397-.1065-1.0049-.3185s-.4621-.4949-.5896-.8478-.1915-.7413-.1915-1.1663c0-.4218.064-.8102.1915-1.1641s.3244-.6391.5896-.8543.6004-.3228,1.0049-.3228c.4019,0,.7343.1076.9985.3228s.46.5003.5875.8543.1915.7424.1915,1.1641c0,.425-.064.8134-.1915,1.1663Z"/><rect class="uuid-f90207e5-e323-40a9-8a89-f72c7c24004a" x="147.4396" y="51.6986" width="1.2868" height="8.8139"/><path class="uuid-f90207e5-e323-40a9-8a89-f72c7c24004a" d="M154.7537,54.2464c-.2598-.1635-.538-.2765-.8349-.3378s-.5772-.0925-.8414-.0925c-.3986,0-.779.057-1.1405.17s-.6805.2937-.9576.5423-.4869.5735-.6305.9748l1.2093.2754c.0947-.2324.2663-.4444.5143-.6348s.5891-.2862,1.0221-.2862c.4158,0,.7295.1033.9404.3099s.3163.4981.3163.8736v.0301c0,.1549-.0559.2668-.1678.3357s-.291.1184-.538.1485-.5681.0678-.964.114c-.3126.0377-.6197.0915-.921.1635s-.574.1775-.8177.3185-.4374.3314-.581.5724-.2152.5476-.2152.921c0,.4336.0984.7994.2948,1.0974s.4643.5261.8026.6821.7171.2346,1.1362.2346c.3642,0,.6773-.0527.9382-.1592s.475-.2399.6412-.4002.291-.3239.3744-.4906h.0516v.9038h1.2567v-4.3897c0-.482-.0834-.8747-.2496-1.1771s-.3793-.5358-.6391-.6993ZM154.3556,58.1283c0,.2614-.0667.5057-.2001.7338s-.3271.4121-.581.553-.5589.2109-.9145.2109c-.3642,0-.6644-.0807-.8995-.2432s-.3529-.4024-.3529-.7209c0-.2292.0608-.4142.1829-.553s.2857-.2464.4906-.3206.4325-.128.6821-.1592c.106-.014.2383-.0323.3959-.0538s.3201-.0463.4863-.0732.3147-.0603.4454-.099.2189-.0807.2647-.127v.8521Z"/><path class="uuid-f90207e5-e323-40a9-8a89-f72c7c24004a" d="M160.3463,53.8031c-.3873,0-.7338.1022-1.0393.3077s-.5186.4852-.6391.8414h-.0689v-1.0501h-1.2438v6.6104h1.2868v-4.0368c0-.2873.0689-.5433.2066-.7682s.3249-.4013.5616-.5294.5073-.1915.8112-.1915c.1318,0,.2641.0097.3959.028s.2238.0355.2754.0495v-1.2308c-.0629-.0086-.1501-.0161-.2604-.0215s-.206-.0086-.2862-.0086Z"/><polygon class="uuid-f90207e5-e323-40a9-8a89-f72c7c24004a" points="163.5224 57.9777 163.6343 51.6986 162.2184 51.6986 162.3303 57.9777 163.5224 57.9777"/><path class="uuid-f90207e5-e323-40a9-8a89-f72c7c24004a" d="M162.9285,58.7954c-.2383,0-.4417.0839-.6111.2518s-.2523.369-.2496.6047c-.0027.2378.0802.4411.2496.609s.3728.2518.6111.2518c.1549,0,.297-.0387.4261-.1162s.2329-.1818.312-.312.12-.2744.1227-.4325c-.0027-.2356-.0888-.4368-.2582-.6047s-.3701-.2518-.6025-.2518Z"/><path class="uuid-f90207e5-e323-40a9-8a89-f72c7c24004a" d="M45.5449,0H4.4791C2.0093,0,0,2.0094,0,4.4791v40.0212c0,2.4698,2.0094,4.4791,4.4791,4.4791h41.0658c2.4698,0,4.4791-2.0093,4.4791-4.4791V4.4791c0-2.4698-2.0093-4.4791-4.4791-4.4791ZM48.4764,44.5004c0,1.619-1.3124,2.9314-2.9314,2.9314H4.4792c-1.619,0-2.9314-1.3124-2.9314-2.9314V4.4791c0-1.619,1.3124-2.9314,2.9314-2.9314h41.0658c1.619,0,2.9314,1.3124,2.9314,2.9314v40.0212Z"/><polygon class="uuid-f90207e5-e323-40a9-8a89-f72c7c24004a" points="5.0569 57.7551 8.0683 57.7551 8.0683 57.0381 5.0569 57.0381 5.0569 54.7826 8.2774 54.7826 8.2774 54.0656 4.2488 54.0656 4.2488 60.7404 8.329 60.7404 8.329 60.0234 5.0569 60.0234 5.0569 57.7551"/><path class="uuid-f90207e5-e323-40a9-8a89-f72c7c24004a" d="M11.9401,57.9896l-.7431-.1822c-.2958-.0739-.5131-.1666-.652-.2771-.1389-.1113-.2084-.2622-.2084-.4534,0-.2151.1016-.3929.3047-.5325.2031-.1404.4578-.2106.764-.2106.2241,0,.4078.0358.5512.1075s.2569.1628.3406.2726.1471.2218.1905.3368l.6909-.1949c-.1195-.357-.3212-.6438-.6042-.8604-.2838-.2173-.6729-.3264-1.1689-.3264-.3518,0-.6662.062-.9433.186s-.4952.2943-.655.5116-.2397.4675-.2397.7499c0,.3451.1075.6326.3212.8619.2144.2293.5504.3981,1.009.5064l.8343.1957c.2517.059.4384.1471.5602.2659.1217.118.183.2644.183.4384,0,.2151-.1061.3988-.3182.5519-.2114.1531-.4967.23-.8552.23-.3152,0-.5699-.0672-.7648-.2024-.1942-.1344-.3264-.3361-.3958-.6057l-.7297.1822c.0889.4257.301.7499.6356.9717.3346.2211.7573.3324,1.2674.3324.3891,0,.7304-.0657,1.0232-.1957.2935-.1307.5221-.3085.6864-.5348.1643-.2256.2457-.4825.2457-.7693,0-.3495-.1098-.6356-.3286-.8582-.2196-.2233-.5534-.3884-1.0008-.4974Z"/><path class="uuid-f90207e5-e323-40a9-8a89-f72c7c24004a" d="M15.6767,56.593c.2248-.1553.487-.233.7865-.233.3391,0,.6094.0889.8104.2659s.3309.3794.3891.608h.7693c-.0433-.3129-.1553-.587-.3353-.8216-.1807-.2345-.4123-.4168-.6946-.5475s-.5997-.1957-.9515-.1957c-.4519,0-.847.1105-1.1845.3309-.3383.2203-.6012.5258-.7887.9157-.1882.3899-.2823.8395-.2823,1.3481,0,.4997.0919.944.2741,1.3324.1822.3891.4429.6946.782.9164.3391.2211.7431.3324,1.2122.3324.3697,0,.6938-.0695.9732-.2069.2793-.1382.5041-.3249.6744-.5609.171-.236.2778-.5012.3212-.7969h-.7693c-.0478.1822-.1277.3391-.2412.469-.1128.1307-.2509.2308-.4138.3002s-.3443.1046-.5445.1046c-.304,0-.5684-.0799-.7932-.2383s-.3988-.3817-.5213-.6684c-.1232-.2868-.1845-.6229-.1845-1.0098,0-.3779.0627-.708.1875-.9896.1247-.2808.3002-.4997.5251-.655Z"/><path class="uuid-f90207e5-e323-40a9-8a89-f72c7c24004a" d="M22.6345,55.9596c-.1964-.118-.3996-.1957-.6094-.233-.2091-.0381-.3943-.0575-.5557-.0575-.2517,0-.5079.0344-.767.1031-.2599.068-.4989.1875-.717.3585-.2188.1703-.3929.4078-.5236.7118l.7304.2607c.0844-.1822.2315-.354.4399-.5146.2084-.1613.4967-.2412.8634-.2412.354,0,.6192.0889.7939.2674.1748.1778.2622.428.2622.7491v.0261c0,.124-.0441.2106-.1322.2607-.0874.05-.227.0851-.4168.1061-.1905.0209-.4377.0508-.7416.0896-.2323.0306-.4631.071-.6923.1225-.2293.0508-.4384.1277-.6274.2293-.189.1023-.3406.2427-.4534.422s-.1695.4123-.1695.6991c0,.3264.0762.6035.2285.8328.1516.2293.357.4041.6162.5251.2584.1202.546.1807.8634.1807.2913,0,.5377-.0433.7394-.13.2024-.0874.3645-.1927.4862-.3167s.2084-.2397.2607-.3488h.0388v.6782h.7693v-3.2982c0-.3973-.065-.7148-.1957-.9515-.13-.2368-.2935-.4138-.4907-.531ZM22.5516,58.9285c0,.2084-.0538.407-.1613.596s-.2659.3436-.4758.4631-.4668.1792-.7708.1792c-.3062,0-.5587-.068-.7581-.2039-.1987-.1352-.298-.3368-.298-.6042,0-.1957.053-.3503.1583-.4646s.2442-.2002.4168-.2577c.1733-.0575.3592-.0993.5594-.1255.0822-.0105.1905-.0239.3241-.0403s.2719-.0358.4138-.059c.1427-.0224.2681-.05.3779-.0814s.1807-.0665.2136-.1061v.7043Z"/><rect class="uuid-f90207e5-e323-40a9-8a89-f72c7c24004a" x="24.7288" y="54.0656" width=".7685" height="6.6748"/><path class="uuid-f90207e5-e323-40a9-8a89-f72c7c24004a" d="M30.3213,56.5295h-.0657c-.056-.0866-.1352-.1979-.236-.3339s-.2465-.2577-.4369-.3652c-.1897-.1075-.4481-.1613-.7738-.1613-.422,0-.7932.1053-1.1143.3159-.3219.2114-.5729.5101-.7528.8962-.1807.3869-.2711.8432-.2711,1.369,0,.5303.0904.9896.2711,1.3772.18.3876.4302.6879.7491.8992.3197.2121.6879.3182,1.1046.3182.3219,0,.5796-.0538.773-.1613s.3421-.2308.4459-.3682c.1046-.1382.1852-.2532.2412-.3443h.0919v.7693h.7424v-6.6748h-.7685v2.4639ZM30.1682,59.2362c-.1113.2883-.2734.5131-.4862.6744-.2129.1621-.4735.2435-.782.2435-.3212,0-.59-.0859-.8066-.2562-.2158-.1703-.3794-.4011-.4885-.6909-.1098-.2898-.1651-.6132-.1651-.9694,0-.3525.0538-.6699.1613-.9538.1075-.2831.2696-.5079.4855-.6744.2166-.1658.4877-.2495.8133-.2495.3129,0,.5758.0792.7887.2368s.3734.3764.4825.658c.1083.2816.1628.6087.1628.9829,0,.3779-.0553.711-.1658.9986Z"/><path class="uuid-f90207e5-e323-40a9-8a89-f72c7c24004a" d="M33.6897,54.7841c.0814-.0963.1837-.1449.3077-.1449s.2285.0217.3129.0635c.0851.0426.1651.0911.2412.1456.0762.0538.1628.1023.2607.1449.0978.0418.2218.0635.3719.0635.2801,0,.5153-.1001.705-.3002.1905-.1994.2853-.469.2853-.8081l-.5863-.0523c0,.1374-.0433.2539-.1292.3503-.0859.0971-.1905.1456-.3144.1456-.1173,0-.2218-.0217-.3144-.0635-.0926-.0426-.1822-.0911-.2689-.1456-.0866-.0538-.1778-.1023-.2734-.1449-.0963-.0426-.2054-.0635-.3294-.0635-.2801,0-.5153.1061-.7058.3182-.1905.2114-.2853.484-.2853.8163l.5997.0261c0-.1374.0411-.2539.1225-.351Z"/><path class="uuid-f90207e5-e323-40a9-8a89-f72c7c24004a" d="M35.6839,55.9596c-.1964-.118-.3996-.1957-.6094-.233-.2091-.0381-.3943-.0575-.5557-.0575-.2517,0-.5079.0344-.767.1031-.2599.068-.4989.1875-.717.3585-.2188.1703-.3929.4078-.5236.7118l.7304.2607c.0844-.1822.2315-.354.4399-.5146.2084-.1613.4967-.2412.8634-.2412.354,0,.6192.0889.7939.2674.1748.1778.2622.428.2622.7491v.0261c0,.124-.0441.2106-.1322.2607-.0874.05-.227.0851-.4168.1061-.1905.0209-.4377.0508-.7416.0896-.2323.0306-.4631.071-.6923.1225-.2293.0508-.4384.1277-.6274.2293-.189.1023-.3406.2427-.4534.422s-.1695.4123-.1695.6991c0,.3264.0762.6035.2285.8328.1516.2293.357.4041.6162.5251.2584.1202.546.1807.8634.1807.2913,0,.5377-.0433.7394-.13.2024-.0874.3645-.1927.4862-.3167s.2084-.2397.2607-.3488h.0388v.6782h.7693v-3.2982c0-.3973-.065-.7148-.1957-.9515-.13-.2368-.2935-.4138-.4907-.531ZM35.601,58.9285c0,.2084-.0538.407-.1613.596s-.2659.3436-.4758.4631-.4668.1792-.7708.1792c-.3062,0-.5587-.068-.7581-.2039-.1987-.1352-.298-.3368-.298-.6042,0-.1957.053-.3503.1583-.4646s.2442-.2002.4168-.2577c.1733-.0575.3592-.0993.5594-.1255.0822-.0105.1905-.0239.3241-.0403s.2719-.0358.4138-.059c.1427-.0224.2681-.05.3779-.0814s.1807-.0665.2136-.1061v.7043Z"/><path class="uuid-f90207e5-e323-40a9-8a89-f72c7c24004a" d="M40.9994,55.9918c-.3402-.2151-.736-.3226-1.1879-.3226s-.8481.1075-1.1879.3226-.605.5176-.7954.906c-.1897.3891-.2853.844-.2853,1.366,0,.5168.0956.9687.2853,1.3556.1905.3869.4556.6879.7954.903s.736.3226,1.1879.3226.8477-.1075,1.1879-.3226c.3398-.2151.605-.5161.795-.903s.2853-.8387.2853-1.3556c0-.5221-.0952-.9769-.2853-1.366-.1901-.3884-.4552-.6909-.795-.906ZM41.151,59.1958c-.1064.2868-.2707.5176-.4922.6938s-.5041.2644-.8473.2644-.6259-.0881-.8473-.2644c-.2218-.1763-.3861-.407-.4922-.6938-.1068-.2868-.1598-.5975-.1598-.9321s.053-.6468.1598-.9358c.1061-.289.2704-.5221.4922-.7006.2214-.1778.5041-.2674.8473-.2674s.6259.0896.8473.2674c.2214.1785.3858.4115.4922.7006s.1595.6012.1595.9358-.053.6453-.1595.9321Z"/><path class="uuid-f90207e5-e323-40a9-8a89-f72c7c24004a" d="M8.177,37.7273c-.3568-.1927-.788-.2887-1.2945-.2887h-2.6338v6.6758h1.4119v-2.1649h1.186c.5137,0,.9502-.0941,1.3124-.2833s.6383-.4527.8301-.7925c.1909-.3389.2869-.7297.2869-1.1735,0-.4428-.0941-.8346-.2824-1.1752-.1883-.3398-.4599-.606-.8167-.7978ZM7.6894,40.2822c-.0879.1685-.2205.3003-.3971.3944-.1775.095-.4016.1425-.6732.1425h-.9583v-2.2268h.952c.2734,0,.4993.0466.6777.1389s.3111.2214.3989.3873c.0887.1667.1327.3604.1327.5818,0,.2196-.0439.4142-.1327.5818Z"/><path class="uuid-f90207e5-e323-40a9-8a89-f72c7c24004a" d="M13.7727,39.4431c-.199-.1372-.4258-.2376-.6813-.303s-.5217-.0977-.8005-.0977c-.3998,0-.7512.0601-1.0542.1811-.303.1201-.5504.2922-.7414.5146-.1918.2232-.32.4868-.3846.7907l1.2837.104c.0484-.1649.1461-.3021.294-.4124.1479-.1094.346-.1641.5961-.1641.2367,0,.4204.0565.5495.1694s.1936.2725.1936.4787v.0197c0,.1067-.0403.1874-.1201.2411-.0807.0547-.2098.095-.3882.1228-.1784.0269-.4133.0556-.7037.0861-.2483.0242-.4841.0654-.7091.1237-.225.0592-.4258.1461-.6015.2609-.1766.1156-.3155.2671-.4177.4563s-.1533.4231-.1533.701c0,.3308.0726.606.2169.8265s.3415.3864.5917.4984.5352.1676.8543.1676c.2474,0,.4662-.0332.6553-.0986.1892-.0663.3505-.1587.4859-.2779.1345-.1183.242-.2555.3227-.4124h.0385v.6947h1.3169v-3.3769c0-.2976-.0574-.554-.1721-.7683-.1156-.2134-.2725-.3891-.4715-.5262ZM13.0376,42.3252c0,.1757-.0448.3335-.1336.4724s-.2116.2492-.3684.3308c-.156.0816-.3371.1219-.5406.1219-.2134,0-.3891-.0493-.5271-.1479s-.2071-.2429-.2071-.4321c0-.13.0341-.2394.1013-.3272.0672-.0887.1623-.1587.2833-.2107.1219-.052.2645-.0896.4276-.1138.0762-.0108.1605-.0233.2537-.0377.0941-.0143.1874-.0305.2806-.0493.0932-.0179.1775-.0385.2528-.0619.0753-.0224.1345-.0484.1775-.0762v.5316Z"/><path class="uuid-f90207e5-e323-40a9-8a89-f72c7c24004a" d="M19.293,39.2701c-.2591-.1515-.5621-.2277-.9099-.2277-.372,0-.6876.0852-.9484.2555-.2609.1712-.4464.4016-.5576.693h-.0583v-.883h-1.3241v5.0067h1.3886v-2.8946c.0027-.2151.043-.3998.1228-.5522.0789-.1533.19-.2707.3326-.3505.1416-.0807.3066-.121.493-.121.2788,0,.4966.0861.6553.2591s.2376.4124.2349.719v2.9403h1.3886v-3.1878c0-.3891-.0717-.7243-.2151-1.0058s-.3442-.4984-.6024-.6508Z"/><path class="uuid-f90207e5-e323-40a9-8a89-f72c7c24004a" d="M23.5897,43.0468c-.0654.0117-.13.0179-.1954.0179-.0932,0-.1757-.0143-.2465-.0421-.0708-.0287-.1255-.078-.1641-.1488-.0394-.0699-.0592-.1694-.0592-.2976v-2.4258h.9422v-1.0426h-.9422v-1.2003h-1.3886v1.2003h-.6849v1.0426h.6849v2.6078c-.0018.3281.0663.5997.2053.8149s.3344.3738.5854.476.5441.147.8785.1336c.1802-.0063.3335-.0242.4599-.0538.1255-.0287.2232-.0547.2931-.0762l-.2187-1.0336c-.035.0063-.0843.0161-.1497.0278Z"/><path class="uuid-f90207e5-e323-40a9-8a89-f72c7c24004a" d="M28.3435,39.3669c-.3675-.2169-.805-.3245-1.3115-.3245s-.944.1076-1.3124.3245c-.3684.216-.6526.5181-.8525.9063-.1999.3873-.2994.84-.2994,1.3572,0,.5128.0995.9637.2994,1.3509.1999.3882.4841.6903.8525.9063.3684.2169.8059.3245,1.3124.3245s.944-.1076,1.3115-.3245c.3684-.216.6526-.5181.8525-.9063.1999-.3873.3003-.8382.3003-1.3509,0-.5173-.1004-.97-.3003-1.3572-.1999-.3882-.4841-.6903-.8525-.9063ZM27.9661,42.3996c-.0798.2286-.1963.4079-.3505.5397s-.3469.1972-.5773.1972c-.2322,0-.4276-.0654-.5854-.1972-.1569-.1318-.2761-.3111-.355-.5397-.0798-.2277-.1192-.4877-.1192-.779s.0394-.5504.1192-.779c.0789-.2277.1981-.4088.355-.5415.1578-.1318.3532-.1981.5854-.1981.2304,0,.4231.0663.5773.1981.1542.1327.2707.3138.3505.5415.0789.2286.1183.4877.1183.779s-.0394.5513-.1183.779Z"/><path class="uuid-f90207e5-e323-40a9-8a89-f72c7c24004a" d="M34.2,39.2701c-.2591-.1515-.5621-.2277-.9099-.2277-.372,0-.6876.0852-.9484.2555-.2609.1712-.4464.4016-.5576.693h-.0583v-.883h-1.3241v5.0067h1.3886v-2.8946c.0027-.2151.043-.3998.1228-.5522.0789-.1533.19-.2707.3326-.3505.1416-.0807.3066-.121.493-.121.2788,0,.4966.0861.6553.2591s.2376.4124.2349.719v2.9403h1.3886v-3.1878c0-.3891-.0717-.7243-.2151-1.0058s-.3442-.4984-.6024-.6508Z"/><path class="uuid-f90207e5-e323-40a9-8a89-f72c7c24004a" d="M40.0099,39.6744c-.2143-.2107-.4644-.3684-.7494-.4742-.286-.1049-.5943-.1578-.9242-.1578-.4913,0-.9189.1085-1.2828.3254-.364.2178-.6463.5208-.8462.9099s-.2994.8409-.2994,1.3563c0,.528.0995.9852.2994,1.3707s.485.6831.8561.8929c.3702.2098.8131.3147,1.3285.3147.4124,0,.7772-.0636,1.0937-.1909.3155-.1264.5746-.3048.7754-.5343s.3344-.4984.3998-.8068l-1.2846-.0852c-.0484.1264-.1174.2331-.2089.32s-.2008.1524-.329.1954c-.1282.0439-.2698.0654-.424.0654-.2322,0-.4339-.0493-.6033-.147s-.3003-.2367-.3926-.4168c-.0923-.1811-.1381-.3944-.1381-.6428v-.0027h3.4092v-.3819c0-.4258-.0592-.7978-.1793-1.1161-.1192-.3182-.286-.5836-.5002-.7943ZM37.286,41.106c.0082-.1795.05-.3456.134-.4939.0914-.1623.2178-.2913.3801-.3882.1614-.0968.3478-.1452.5585-.1452.2026,0,.3801.0439.5334.1318.1533.0887.2734.2098.3604.364s.13.3317.13.5316h-2.0963Z"/></g></svg>